<?xml version="1.0" encoding="UTF-8" standalone="no"?>
<!DOCTYPE svg PUBLIC "-//W3C//DTD SVG 1.1//EN" "http://www.w3.org/Graphics/SVG/1.1/DTD/svg11.dtd">
<svg width="100%" height="100%" viewBox="0 0 680 134" version="1.1" xmlns="http://www.w3.org/2000/svg" xmlns:xlink="http://www.w3.org/1999/xlink" xml:space="preserve" xmlns:serif="http://www.serif.com/" style="fill-rule:evenodd;clip-rule:evenodd;stroke-linejoin:round;stroke-miterlimit:1.41421;">
    <g transform="matrix(4.16667,0,0,4.16667,0,0)">
        <path d="M80.576,19.817L77.294,19.817L77.294,19.61C77.8,19.569 78.166,19.536 78.166,19.023L78.166,15.018C78.166,14.472 77.726,14.456 77.294,14.431L77.294,14.224L80.576,14.224L80.576,14.431C80.136,14.448 79.685,14.456 79.685,15.018L79.685,19.023C79.685,19.552 80.06,19.577 80.576,19.61L80.576,19.817Z" style="fill:rgb(77,75,70);fill-rule:nonzero;"/>
        <path d="M81.776,19.61C82.359,19.552 82.632,19.495 82.632,18.948L82.632,15.027C82.087,14.456 81.931,14.431 81.805,14.431L81.805,14.224L83.857,14.224L87.233,17.757L87.252,17.757L87.252,15.25C87.252,14.754 87.136,14.481 86.348,14.431L86.348,14.224L88.439,14.224L88.439,14.431C87.738,14.505 87.68,14.696 87.68,15.093L87.68,19.966L87.408,19.966L83.079,15.482L83.06,15.482L83.06,18.791C83.06,19.387 83.264,19.544 83.984,19.61L83.984,19.817L81.776,19.817L81.776,19.61Z" style="fill:rgb(77,75,70);fill-rule:nonzero;"/>
        <path d="M93.33,15.887C93.179,15.308 92.676,14.357 91.688,14.357C91.252,14.357 90.791,14.605 90.791,15.142C90.791,15.589 90.95,15.771 91.654,16.119L92.886,16.723C93.171,16.864 93.808,17.343 93.808,18.245C93.808,18.973 93.271,19.975 91.73,19.975C90.934,19.975 90.556,19.693 90.297,19.693C90.121,19.693 90.079,19.842 90.045,19.975L89.802,19.975L89.802,17.93L90.045,17.93C90.213,18.766 90.699,19.701 91.763,19.701C92.769,19.701 92.811,18.882 92.811,18.774C92.811,18.22 92.417,18.022 91.872,17.765L91.31,17.5C89.877,16.822 89.877,16.11 89.877,15.73C89.877,15.225 90.138,14.1 91.73,14.1C92.4,14.1 92.794,14.373 93.037,14.373C93.229,14.373 93.271,14.249 93.313,14.092L93.565,14.092L93.565,15.887L93.33,15.887Z" style="fill:rgb(77,75,70);fill-rule:nonzero;"/>
        <path d="M99.342,19.817L96.249,19.817L96.249,19.61C96.882,19.561 97.089,19.544 97.089,18.849L97.089,14.489C96.483,14.522 95.591,14.563 95.417,15.887L95.166,15.887L95.192,14.224L100.39,14.224L100.407,15.887L100.156,15.887C99.983,14.563 99.09,14.522 98.493,14.489L98.493,18.849C98.493,19.552 98.701,19.569 99.342,19.61L99.342,19.817Z" style="fill:rgb(77,75,70);fill-rule:nonzero;"/>
        <path d="M104.875,19.817L101.593,19.817L101.593,19.61C102.099,19.569 102.465,19.536 102.465,19.023L102.465,15.018C102.465,14.472 102.024,14.456 101.593,14.431L101.593,14.224L104.875,14.224L104.875,14.431C104.434,14.448 103.984,14.456 103.984,15.018L103.984,19.023C103.984,19.552 104.359,19.577 104.875,19.61L104.875,19.817Z" style="fill:rgb(77,75,70);fill-rule:nonzero;"/>
        <path d="M110.226,19.817L107.134,19.817L107.134,19.61C107.766,19.561 107.974,19.544 107.974,18.849L107.974,14.489C107.367,14.522 106.476,14.563 106.302,15.887L106.051,15.887L106.077,14.224L111.274,14.224L111.292,15.887L111.041,15.887C110.867,14.563 109.975,14.522 109.377,14.489L109.377,18.849C109.377,19.552 109.585,19.569 110.226,19.61L110.226,19.817Z" style="fill:rgb(77,75,70);fill-rule:nonzero;"/>
        <path d="M118.882,14.431C118.365,14.497 118.148,14.588 118.148,15.134L118.148,17.774C118.148,18.262 118.017,18.998 117.622,19.37C117.152,19.817 116.334,19.975 115.769,19.975C115.356,19.975 114.471,19.925 113.86,19.453C113.456,19.139 113.211,18.849 113.211,17.955L113.211,15.192C113.211,14.497 112.967,14.481 112.441,14.431L112.441,14.224L115.619,14.224L115.619,14.431C114.998,14.456 114.707,14.464 114.707,15.192L114.707,17.955C114.707,18.427 114.707,19.569 116.061,19.569C117.716,19.569 117.735,18.303 117.735,17.774L117.735,15.25C117.735,14.745 117.622,14.464 116.813,14.431L116.813,14.224L118.882,14.224L118.882,14.431Z" style="fill:rgb(77,75,70);fill-rule:nonzero;"/>
        <path d="M124.253,19.817L121.16,19.817L121.16,19.61C121.793,19.561 122.001,19.544 122.001,18.849L122.001,14.489C121.394,14.522 120.502,14.563 120.329,15.887L120.077,15.887L120.104,14.224L125.301,14.224L125.318,15.887L125.067,15.887C124.894,14.563 124.002,14.522 123.404,14.489L123.404,18.849C123.404,19.552 123.612,19.569 124.253,19.61L124.253,19.817Z" style="fill:rgb(77,75,70);fill-rule:nonzero;"/>
        <path d="M129.6,14.224L133.924,14.224L133.924,15.887L133.74,15.887C133.573,15.027 133.367,14.505 132.055,14.505C131.643,14.505 131.506,14.539 131.506,14.894L131.506,16.814C132.452,16.831 132.566,16.243 132.673,15.581L132.864,15.581L132.864,18.377L132.673,18.377C132.589,17.699 132.467,17.095 131.506,17.095L131.506,19.023C131.506,19.569 131.811,19.586 132.345,19.61L132.345,19.817L129.6,19.817L129.6,19.61C130.035,19.561 130.271,19.536 130.271,19.023L130.271,15.018C130.271,14.472 129.958,14.456 129.6,14.431L129.6,14.224Z" style="fill:rgb(77,75,70);fill-rule:nonzero;"/>
        <path d="M141.459,14.431C140.941,14.497 140.725,14.588 140.725,15.134L140.725,17.774C140.725,18.262 140.594,18.998 140.199,19.37C139.728,19.817 138.91,19.975 138.346,19.975C137.932,19.975 137.049,19.925 136.437,19.453C136.033,19.139 135.789,18.849 135.789,17.955L135.789,15.192C135.789,14.497 135.544,14.481 135.017,14.431L135.017,14.224L138.196,14.224L138.196,14.431C137.575,14.456 137.283,14.464 137.283,15.192L137.283,17.955C137.283,18.427 137.283,19.569 138.638,19.569C140.293,19.569 140.312,18.303 140.312,17.774L140.312,15.25C140.312,14.745 140.199,14.464 139.39,14.431L139.39,14.224L141.459,14.224L141.459,14.431ZM137.528,12.561C137.857,12.561 138.13,12.809 138.13,13.107C138.13,13.397 137.876,13.637 137.528,13.637C137.124,13.637 136.935,13.306 136.935,13.099C136.935,12.892 137.133,12.561 137.528,12.561ZM139.493,12.561C139.823,12.561 140.104,12.809 140.104,13.107C140.104,13.397 139.841,13.637 139.493,13.637C139.089,13.637 138.91,13.306 138.91,13.099C138.91,12.892 139.098,12.561 139.493,12.561Z" style="fill:rgb(77,75,70);fill-rule:nonzero;"/>
        <path d="M144.788,14.853C144.831,14.596 144.849,14.505 145.328,14.505C146.024,14.505 146.381,14.861 146.381,15.697C146.381,16.773 145.928,16.954 144.788,16.963L144.788,14.853ZM148.609,19.61C148.504,19.61 148.373,19.602 148.252,19.453L146.502,17.095C146.972,16.954 147.869,16.698 147.869,15.68C147.869,14.29 146.024,14.224 145.414,14.224L142.612,14.224L142.612,14.431C143.108,14.464 143.378,14.481 143.378,15.192L143.378,18.849C143.378,19.519 143.204,19.544 142.612,19.61L142.612,19.817L145.554,19.817L145.554,19.61C144.979,19.536 144.788,19.511 144.788,18.849L144.788,17.228L145.023,17.228L146.824,19.817L148.609,19.817L148.609,19.61Z" style="fill:rgb(77,75,70);fill-rule:nonzero;"/>
        <path d="M70.174,29.544L66.986,29.544L66.986,29.337C67.483,29.287 67.83,29.254 67.83,28.749L67.83,26.846L65.57,26.846L65.57,28.749C65.57,29.254 65.917,29.287 66.414,29.337L66.414,29.544L63.254,29.544L63.254,29.337C63.751,29.279 64.051,29.237 64.051,28.749L64.051,24.745C64.051,24.207 63.648,24.19 63.254,24.157L63.254,23.951L66.414,23.951L66.414,24.157C66.001,24.182 65.57,24.199 65.57,24.745L65.57,26.457L67.83,26.457L67.83,24.745C67.83,24.199 67.398,24.182 66.986,24.157L66.986,23.951L70.174,23.951L70.174,24.157C69.771,24.182 69.349,24.207 69.349,24.745L69.349,28.749C69.349,29.246 69.677,29.279 70.174,29.337L70.174,29.544Z" style="fill:rgb(77,75,70);fill-rule:nonzero;"/>
        <path d="M77.042,24.157C76.524,24.224 76.308,24.314 76.308,24.861L76.308,27.5C76.308,27.988 76.177,28.724 75.781,29.097C75.311,29.544 74.493,29.701 73.929,29.701C73.515,29.701 72.631,29.651 72.02,29.18C71.616,28.865 71.371,28.576 71.371,27.682L71.371,24.919C71.371,24.224 71.127,24.207 70.6,24.157L70.6,23.951L73.778,23.951L73.778,24.157C73.158,24.182 72.866,24.19 72.866,24.919L72.866,27.682C72.866,28.154 72.866,29.295 74.221,29.295C75.875,29.295 75.894,28.03 75.894,27.5L75.894,24.977C75.894,24.472 75.781,24.19 74.973,24.157L74.973,23.951L77.042,23.951L77.042,24.157Z" style="fill:rgb(77,75,70);fill-rule:nonzero;"/>
        <path d="M86.417,29.544L83.187,29.544L83.187,29.337C83.771,29.287 84.053,29.262 84.053,28.716L84.053,24.546L84.033,24.546L81.602,29.544L81.339,29.544L78.907,24.67L78.888,24.67L78.888,28.518C78.888,29.097 79.063,29.295 79.87,29.337L79.87,29.544L77.594,29.544L77.594,29.337C78.353,29.279 78.479,29.155 78.479,28.675L78.479,24.745C78.479,24.314 78.304,24.199 77.613,24.157L77.613,23.951L80.075,23.951L82.02,27.856L83.965,23.951L86.417,23.951L86.417,24.157C85.872,24.19 85.561,24.207 85.561,24.919L85.561,28.576C85.561,29.237 85.775,29.262 86.417,29.337L86.417,29.544Z" style="fill:rgb(77,75,70);fill-rule:nonzero;"/>
        <path d="M88.637,27.591L89.521,25.58L90.471,27.591L88.637,27.591ZM93.339,29.337C92.887,29.353 92.737,29.072 92.314,28.187L90.216,23.835L89.953,23.835L87.866,28.369C87.583,28.989 87.452,29.27 86.944,29.337L86.944,29.544L88.853,29.544L88.853,29.337C88.533,29.32 88.082,29.295 88.082,28.981C88.082,28.848 88.232,28.509 88.496,27.913L90.612,27.913C90.743,28.179 91.044,28.79 91.044,29.014C91.044,29.287 90.875,29.295 90.292,29.337L90.292,29.544L93.339,29.544L93.339,29.337Z" style="fill:rgb(77,75,70);fill-rule:nonzero;"/>
        <path d="M94.038,29.337C94.622,29.279 94.894,29.221 94.894,28.675L94.894,24.753C94.349,24.182 94.194,24.157 94.067,24.157L94.067,23.951L96.12,23.951L99.495,27.483L99.514,27.483L99.514,24.977C99.514,24.48 99.398,24.207 98.61,24.157L98.61,23.951L100.701,23.951L100.701,24.157C100.001,24.232 99.942,24.422 99.942,24.819L99.942,29.692L99.67,29.692L95.341,25.208L95.322,25.208L95.322,28.518C95.322,29.113 95.526,29.27 96.246,29.337L96.246,29.544L94.038,29.544L94.038,29.337Z" style="fill:rgb(77,75,70);fill-rule:nonzero;"/>
        <path d="M107.727,27.376C107.186,27.434 106.977,27.458 106.977,28.137L106.977,29.188C106.558,29.469 105.38,29.701 104.621,29.701C102.439,29.701 101.462,28.236 101.462,26.797C101.462,25.167 102.666,23.826 104.551,23.826C105.337,23.826 106.008,24.232 106.235,24.232C106.471,24.232 106.549,24.058 106.636,23.851L106.872,23.851L106.872,25.787L106.654,25.787C106.349,25.068 105.616,24.1 104.621,24.1C103.356,24.1 103.006,25.357 103.006,26.78C103.006,27.368 103.059,29.428 104.708,29.428C105.476,29.428 105.616,29.18 105.616,28.824L105.616,27.955C105.616,27.425 105.337,27.409 104.734,27.376L104.734,27.169L107.727,27.169L107.727,27.376Z" style="fill:rgb(77,75,70);fill-rule:nonzero;"/>
        <path d="M108.152,23.951L112.713,23.951L112.713,25.613L112.515,25.613C112.333,24.439 111.772,24.232 110.705,24.232C110.27,24.232 110.128,24.265 110.128,24.621L110.128,26.54C110.887,26.548 111.29,26.334 111.409,25.308L111.614,25.308L111.614,28.104L111.409,28.104C111.314,27.07 110.911,26.822 110.128,26.822L110.128,28.824C110.128,29.188 110.278,29.287 110.792,29.287C111.567,29.287 112.373,29.072 112.871,27.823L113.092,27.823L112.776,29.544L108.152,29.544L108.152,29.337C108.603,29.287 108.848,29.262 108.848,28.749L108.848,24.745C108.848,24.199 108.516,24.182 108.152,24.157L108.152,23.951Z" style="fill:rgb(77,75,70);fill-rule:nonzero;"/>
        <path d="M116.79,24.1C118.011,24.1 118.334,25.555 118.334,26.764C118.334,27.483 118.282,29.428 116.79,29.428C115.297,29.428 115.245,27.483 115.245,26.764C115.245,25.555 115.568,24.1 116.79,24.1ZM116.79,23.826C115.106,23.826 113.701,24.96 113.701,26.764C113.701,28.501 115.001,29.701 116.79,29.701C118.579,29.701 119.879,28.501 119.879,26.764C119.879,24.96 118.474,23.826 116.79,23.826Z" style="fill:rgb(77,75,70);fill-rule:nonzero;"/>
        <path d="M126.871,27.376C126.33,27.434 126.12,27.458 126.12,28.137L126.12,29.188C125.701,29.469 124.523,29.701 123.764,29.701C121.582,29.701 120.605,28.236 120.605,26.797C120.605,25.167 121.809,23.826 123.694,23.826C124.479,23.826 125.151,24.232 125.378,24.232C125.614,24.232 125.692,24.058 125.78,23.851L126.015,23.851L126.015,25.787L125.797,25.787C125.492,25.068 124.759,24.1 123.764,24.1C122.499,24.1 122.149,25.357 122.149,26.78C122.149,27.368 122.202,29.428 123.851,29.428C124.619,29.428 124.759,29.18 124.759,28.824L124.759,27.955C124.759,27.425 124.479,27.409 123.877,27.376L123.877,27.169L126.871,27.169L126.871,27.376Z" style="fill:rgb(77,75,70);fill-rule:nonzero;"/>
        <path d="M129.571,24.58C129.614,24.323 129.632,24.232 130.111,24.232C130.807,24.232 131.164,24.588 131.164,25.423C131.164,26.499 130.711,26.681 129.571,26.689L129.571,24.58ZM133.392,29.337C133.287,29.337 133.156,29.328 133.035,29.18L131.285,26.822C131.756,26.681 132.652,26.424 132.652,25.407C132.652,24.017 130.807,23.951 130.197,23.951L127.395,23.951L127.395,24.157C127.891,24.19 128.161,24.207 128.161,24.919L128.161,28.576C128.161,29.246 127.987,29.27 127.395,29.337L127.395,29.544L130.337,29.544L130.337,29.337C129.762,29.262 129.571,29.237 129.571,28.576L129.571,26.954L129.806,26.954L131.607,29.544L133.392,29.544L133.392,29.337Z" style="fill:rgb(77,75,70);fill-rule:nonzero;"/>
        <path d="M135.327,27.591L136.211,25.58L137.161,27.591L135.327,27.591ZM140.029,29.337C139.578,29.353 139.427,29.072 139.004,28.187L136.907,23.835L136.644,23.835L134.556,28.369C134.274,28.989 134.143,29.27 133.635,29.337L133.635,29.544L135.543,29.544L135.543,29.337C135.224,29.32 134.773,29.295 134.773,28.981C134.773,28.848 134.923,28.509 135.186,27.913L137.302,27.913C137.434,28.179 137.735,28.79 137.735,29.014C137.735,29.287 137.565,29.295 136.982,29.337L136.982,29.544L140.029,29.544L140.029,29.337Z" style="fill:rgb(77,75,70);fill-rule:nonzero;"/>
        <path d="M142.914,24.53C142.924,24.348 143.047,24.24 143.368,24.24C144.143,24.24 144.484,24.555 144.484,25.498C144.484,26.524 144.058,26.764 142.914,26.747L142.914,24.53ZM140.588,29.544L143.746,29.544L143.746,29.337C143.094,29.262 142.914,29.246 142.914,28.576L142.914,27.037C144.162,27.028 144.645,27.02 145.25,26.722C146.007,26.35 146.111,25.763 146.111,25.473C146.111,24.075 144.389,23.951 143.633,23.951L140.588,23.951L140.588,24.157C141.089,24.199 141.382,24.224 141.382,24.919L141.382,28.576C141.382,29.039 141.25,29.146 141.137,29.221C141.07,29.262 141.052,29.27 140.588,29.337L140.588,29.544Z" style="fill:rgb(77,75,70);fill-rule:nonzero;"/>
        <path d="M153.429,29.544L150.241,29.544L150.241,29.337C150.738,29.287 151.085,29.254 151.085,28.749L151.085,26.846L148.825,26.846L148.825,28.749C148.825,29.254 149.172,29.287 149.669,29.337L149.669,29.544L146.509,29.544L146.509,29.337C147.006,29.279 147.306,29.237 147.306,28.749L147.306,24.745C147.306,24.207 146.903,24.19 146.509,24.157L146.509,23.951L149.669,23.951L149.669,24.157C149.256,24.182 148.825,24.199 148.825,24.745L148.825,26.457L151.085,26.457L151.085,24.745C151.085,24.199 150.654,24.182 150.241,24.157L150.241,23.951L153.429,23.951L153.429,24.157C153.025,24.182 152.604,24.207 152.604,24.745L152.604,28.749C152.604,29.246 152.932,29.279 153.429,29.337L153.429,29.544Z" style="fill:rgb(77,75,70);fill-rule:nonzero;"/>
        <path d="M157.174,29.544L153.892,29.544L153.892,29.337C154.398,29.295 154.764,29.262 154.764,28.749L154.764,24.745C154.764,24.199 154.324,24.182 153.892,24.157L153.892,23.951L157.174,23.951L157.174,24.157C156.733,24.174 156.283,24.182 156.283,24.745L156.283,28.749C156.283,29.279 156.658,29.304 157.174,29.337L157.174,29.544Z" style="fill:rgb(77,75,70);fill-rule:nonzero;"/>
        <path d="M157.576,23.951L162.137,23.951L162.137,25.613L161.939,25.613C161.757,24.439 161.196,24.232 160.129,24.232C159.694,24.232 159.552,24.265 159.552,24.621L159.552,26.54C160.311,26.548 160.714,26.334 160.833,25.308L161.038,25.308L161.038,28.104L160.833,28.104C160.738,27.07 160.334,26.822 159.552,26.822L159.552,28.824C159.552,29.188 159.702,29.287 160.216,29.287C160.991,29.287 161.797,29.072 162.295,27.823L162.516,27.823L162.2,29.544L157.576,29.544L157.576,29.337C158.027,29.287 158.272,29.262 158.272,28.749L158.272,24.745C158.272,24.199 157.94,24.182 157.576,24.157L157.576,23.951Z" style="fill:rgb(77,75,70);fill-rule:nonzero;"/>
        <rect x="25.331" y="0.372" width="4.012" height="17.804" style="fill:rgb(77,75,70);fill-rule:nonzero;"/>
        <rect x="42.38" y="0.372" width="1.732" height="17.804" style="fill:rgb(77,75,70);fill-rule:nonzero;"/>
        <rect x="31.844" y="6.821" width="1.221" height="6.447" style="fill:rgb(77,75,70);fill-rule:nonzero;"/>
        <rect x="35.1" y="4.628" width="2.634" height="11.073" style="fill:rgb(77,75,70);fill-rule:nonzero;"/>
        <rect x="39.071" y="6.28" width="1.572" height="7.943" style="fill:rgb(77,75,70);fill-rule:nonzero;"/>
        <path d="M51.2,12.591C47.278,11.945 42.577,10.869 32.93,11.053C14.838,11.396 3.244,15.651 3.244,20.138C3.244,24.855 14.032,26.733 30.27,27.691C33.252,27.867 38.331,28.06 39.296,28.013L47.946,21.036L20.524,21.036L20.524,19.714L51.62,19.714L40.396,31.919C37.544,31.892 35.183,31.717 30.123,31.39C11.684,30.2 -0.091,26.96 0.075,20.576C0.228,14.743 13.915,10.279 32.81,10.279C41.859,10.279 46.194,11.293 51.334,12.22" style="fill:rgb(77,75,70);fill-rule:nonzero;"/>
    </g>
</svg>
